<svg xmlns="http://www.w3.org/2000/svg" xmlns:xlink="http://www.w3.org/1999/xlink" xmlns:lucid="lucid" width="1380" height="561"><g transform="translate(-60 -60)" lucid:page-tab-id="0_0"><path d="M0 0h1870.4v1323.2H0z" fill="#fff"/><path d="M80 80h160v120H80z" stroke="#000" stroke-width="2" fill="#ffeca9"/><use xlink:href="#a" transform="matrix(1,0,0,1,92,92) translate(56.525 51.6)"/><path d="M420 368c0 6.63-26.86 12-60 12s-60-5.37-60-12v-96c0-6.63 26.86-12 60-12s60 5.37 60 12z" stroke="#000" stroke-width="2" fill="#fff"/><path d="M420 272c0 6.63-26.86 12-60 12s-60-5.37-60-12" stroke="#000" stroke-width="2" fill="none"/><use xlink:href="#b" transform="matrix(1,0,0,1,305,289) translate(9.524999999999999 35.8)"/><use xlink:href="#c" transform="matrix(1,0,0,1,305,289) translate(54.525 35.8)"/><use xlink:href="#d" transform="matrix(1,0,0,1,305,289) translate(94.525 35.8)"/><use xlink:href="#e" transform="matrix(1,0,0,1,305,289) translate(2.1000000000000014 57.4)"/><use xlink:href="#f" transform="matrix(1,0,0,1,305,289) translate(50.050000000000004 57.4)"/><use xlink:href="#g" transform="matrix(1,0,0,1,305,289) translate(67.05000000000001 57.4)"/><path d="M480 80h160v120H480z" stroke="#000" stroke-width="2" fill="#fff"/><use xlink:href="#h" transform="matrix(1,0,0,1,492,92) translate(11.600000000000001 51.6)"/><path d="M880 80h160v120H880z" stroke="#000" stroke-width="2" fill="#fff"/><use xlink:href="#i" transform="matrix(1,0,0,1,892,92) translate(4.549999999999997 51.6)"/><use xlink:href="#j" transform="matrix(1,0,0,1,892,92) translate(66.5 51.6)"/><path d="M1260 260h160v120h-160z" stroke="#000" stroke-width="2" fill="#fff"/><use xlink:href="#k" transform="matrix(1,0,0,1,1272,272) translate(40.075 51.6)"/><path d="M820 368c0 6.63-26.86 12-60 12s-60-5.37-60-12v-96c0-6.63 26.86-12 60-12s60 5.37 60 12z" stroke="#000" stroke-width="2" fill="#fff"/><path d="M820 272c0 6.63-26.86 12-60 12s-60-5.37-60-12" stroke="#000" stroke-width="2" fill="none"/><use xlink:href="#l" transform="matrix(1,0,0,1,705,289) translate(10.049999999999997 35.8)"/><use xlink:href="#m" transform="matrix(1,0,0,1,705,289) translate(69.94999999999999 35.8)"/><use xlink:href="#g" transform="matrix(1,0,0,1,705,289) translate(34.575 57.4)"/><path d="M1400 188c0 6.63-26.86 12-60 12s-60-5.37-60-12V92c0-6.63 26.86-12 60-12s60 5.37 60 12z" stroke="#000" stroke-width="2" fill="#fff"/><path d="M1400 92c0 6.63-26.86 12-60 12s-60-5.37-60-12" stroke="#000" stroke-width="2" fill="none"/><use xlink:href="#n" transform="matrix(1,0,0,1,1285,109) translate(10.600000000000001 14.4)"/><use xlink:href="#o" transform="matrix(1,0,0,1,1285,109) translate(25.5 36)"/><use xlink:href="#p" transform="matrix(1,0,0,1,1285,109) translate(17.549999999999997 57.6)"/><use xlink:href="#q" transform="matrix(1,0,0,1,1285,109) translate(31 79.20000000000002)"/><path d="M190.67 202v118h89.83" stroke="#000" stroke-width="2" fill="none"/><path d="M191.67 202.03h-2V201h2z"/><path d="M295.76 320l-14.26 4.64v-9.28z" stroke="#000" stroke-width="2"/><path d="M242 140h218.5" stroke="#0c7cba" stroke-width="2" fill="none"/><path d="M242.03 141H241v-2h1.03z" fill="#0c7cba"/><path d="M475.76 140l-14.26 4.64v-9.28z" stroke="#0c7cba" stroke-width="2" fill="#0c7cba"/><path d="M360 258v-91.33h100.5" stroke="#000" stroke-width="2" fill="none"/><path d="M361 259.04l-1-.04-1 .03v-1.06h2z"/><path d="M475.76 166.67l-14.26 4.63v-9.27z" stroke="#000" stroke-width="2"/><path d="M760 258V140h100.5" stroke="#000" stroke-width="2" fill="none"/><path d="M761 259.04l-1-.04-1 .03v-1.06h2z"/><path d="M875.76 140l-14.26 4.64v-9.28z" stroke="#000" stroke-width="2"/><path d="M642 140h28v180h10.5" stroke="#000" stroke-width="2" fill="none"/><path d="M642.03 141H641v-2h1.03z"/><path d="M695.76 320l-14.26 4.64v-9.28z" stroke="#000" stroke-width="2"/><path d="M1042 140h218.5" stroke="#000" stroke-width="2" fill="none"/><path d="M1042.03 141H1041v-2h1.03z"/><path d="M1275.76 140l-14.26 4.64v-9.28z" stroke="#000" stroke-width="2"/><path d="M1340 202v38.5" stroke="#000" stroke-width="2" fill="none"/><path d="M1340 201l1-.03v1.06h-2v-1.07z"/><path d="M1340 255.76l-4.64-14.26h9.28z" stroke="#000" stroke-width="2"/><path d="M880 460h160v120H880z" stroke="#000" stroke-width="2" fill="#fff"/><use xlink:href="#r" transform="matrix(1,0,0,1,892,472) translate(29.599999999999994 51.6)"/><path d="M820 568c0 6.63-26.86 12-60 12s-60-5.37-60-12v-96c0-6.63 26.86-12 60-12s60 5.37 60 12z" stroke="#000" stroke-width="2" fill="#fff"/><path d="M820 472c0 6.63-26.86 12-60 12s-60-5.37-60-12" stroke="#000" stroke-width="2" fill="none"/><use xlink:href="#n" transform="matrix(1,0,0,1,705,489) translate(10.600000000000001 25)"/><use xlink:href="#s" transform="matrix(1,0,0,1,705,489) translate(0.02499999999999858 46.6)"/><use xlink:href="#o" transform="matrix(1,0,0,1,705,489) translate(50.975 46.6)"/><use xlink:href="#t" transform="matrix(1,0,0,1,705,489) translate(8.075000000000003 68.2)"/><use xlink:href="#u" transform="matrix(1,0,0,1,705,489) translate(53.925 68.2)"/><path d="M878 520h-38.5" stroke="#000" stroke-width="2" fill="none"/><path d="M879 521h-1.03v-2H879z"/><path d="M824.24 520l14.26-4.64v9.28z" stroke="#000" stroke-width="2"/><path d="M480 460h160v120H480z" stroke="#000" stroke-width="2" fill="#fff"/><use xlink:href="#v" transform="matrix(1,0,0,1,492,472) translate(29.074999999999996 51.6)"/><path d="M698 520h-38.5" stroke="#000" stroke-width="2" fill="none"/><path d="M699 521h-1.03v-2H699z"/><path d="M644.24 520l14.26-4.64v9.28z" stroke="#000" stroke-width="2"/><path d="M220 568c0 6.63-26.86 12-60 12s-60-5.37-60-12v-96c0-6.63 26.86-12 60-12s60 5.37 60 12z" stroke="#000" stroke-width="2" fill="#fff"/><path d="M220 472c0 6.63-26.86 12-60 12s-60-5.37-60-12" stroke="#000" stroke-width="2" fill="none"/><use xlink:href="#w" transform="matrix(1,0,0,1,105,489) translate(4.024999999999999 46.6)"/><use xlink:href="#x" transform="matrix(1,0,0,1,105,489) translate(63.025 46.6)"/><path d="M160 458V219.5" stroke="#000" stroke-width="2" fill="none"/><path d="M161 459.04l-1-.04-1 .03v-1.06h2z"/><path d="M160 204.24l4.64 14.26h-9.28z" stroke="#000" stroke-width="2"/><path d="M478 520H239.5" stroke="#000" stroke-width="2" fill="none"/><path d="M479 521h-1.03v-2H479z"/><path d="M224.24 520l14.26-4.64v9.28z" stroke="#000" stroke-width="2"/><path d="M478 542.67H377V610H80V250h40v-30.5" stroke="#19967d" stroke-width="2" fill="none"/><path d="M479 543.67h-1.03v-2H479z" fill="#19967d"/><path d="M120 204.24l4.64 14.26h-9.28z" stroke="#19967d" stroke-width="2" fill="#19967d"/><path d="M100 220h240v60H100z" stroke="#000" stroke-opacity="0" stroke-width="2" fill="#fff" fill-opacity="0"/><use xlink:href="#y" transform="matrix(1,0,0,1,105,225) translate(86.55 28.6)"/><path d="M290 80h140v60H290z" stroke="#000" stroke-opacity="0" stroke-width="2" fill="#fff" fill-opacity="0"/><use xlink:href="#z" transform="matrix(1,0,0,1,295,85) translate(9.549999999999997 17.799999999999997)"/><use xlink:href="#A" transform="matrix(1,0,0,1,295,85) translate(70.45 17.799999999999997)"/><use xlink:href="#B" transform="matrix(1,0,0,1,295,85) translate(37.55 39.4)"/><path d="M1400 568c0 6.63-26.86 12-60 12s-60-5.37-60-12v-96c0-6.63 26.86-12 60-12s60 5.37 60 12z" stroke="#000" stroke-width="2" fill="#fff"/><path d="M1400 472c0 6.63-26.86 12-60 12s-60-5.37-60-12" stroke="#000" stroke-width="2" fill="none"/><use xlink:href="#C" transform="matrix(1,0,0,1,1285,489) translate(2.378086419753089 21.311111111111114)"/><use xlink:href="#D" transform="matrix(1,0,0,1,1285,489) translate(73.01759259259259 21.311111111111114)"/><use xlink:href="#E" transform="matrix(1,0,0,1,1285,489) translate(7.084876543209873 37.57777777777778)"/><use xlink:href="#F" transform="matrix(1,0,0,1,1285,489) translate(55.282407407407405 37.57777777777778)"/><use xlink:href="#G" transform="matrix(1,0,0,1,1285,489) translate(93.87808641975309 37.57777777777778)"/><use xlink:href="#H" transform="matrix(1,0,0,1,1285,489) translate(12.563580246913588 53.84444444444445)"/><use xlink:href="#I" transform="matrix(1,0,0,1,1285,489) translate(4.5996913580247 70.11111111111111)"/><use xlink:href="#J" transform="matrix(1,0,0,1,1285,489) translate(69.25216049382716 70.11111111111111)"/><path d="M1278 520h-218.5" stroke="#000" stroke-width="2" fill="none"/><path d="M1279 521h-1.03v-2h1.03z"/><path d="M1044.24 520l14.26-4.64v9.28z" stroke="#000" stroke-width="2"/><path d="M1340 382v58.5" stroke="#000" stroke-width="2" fill="none"/><path d="M1341 382.03h-2V381h2z"/><path d="M1340 455.76l-4.64-14.26h9.28z" stroke="#000" stroke-width="2"/><path d="M1120 80h80v60h-80z" stroke="#000" stroke-opacity="0" stroke-width="2" fill="#fff" fill-opacity="0"/><use xlink:href="#K" transform="matrix(1,0,0,1,1125,85) translate(7.024999999999999 28.6)"/><path d="M560 220h100v60H560z" stroke="#000" stroke-opacity="0" stroke-width="2" fill="#fff" fill-opacity="0"/><use xlink:href="#K" transform="matrix(1,0,0,1,565,225) translate(17.025 28.6)"/><path d="M1340 390h80v60h-80z" stroke="#000" stroke-opacity="0" stroke-width="2" fill="#fff" fill-opacity="0"/><use xlink:href="#K" transform="matrix(1,0,0,1,1345,395) translate(7.024999999999999 28.6)"/><path d="M820 480h60v60h-60z" stroke="#000" stroke-opacity="0" stroke-width="2" fill="#fff" fill-opacity="0"/><use xlink:href="#K" transform="matrix(1,0,0,1,825,485) translate(-2.9750000000000014 28.6)"/><path d="M320 460h80v60h-80z" stroke="#000" stroke-opacity="0" stroke-width="2" fill="#fff" fill-opacity="0"/><use xlink:href="#L" transform="matrix(1,0,0,1,325,465) translate(13.524999999999999 17.799999999999997)"/><use xlink:href="#M" transform="matrix(1,0,0,1,325,465) translate(23.55 39.4)"/><path d="M778.3 258.73v-99.7h82.2" stroke="#000" stroke-width="2" fill="none"/><path d="M779.3 259.77l-2-.08v-1h2z"/><path d="M875.76 159.03l-14.26 4.64v-9.27z" stroke="#000" stroke-width="2"/><path d="M737.6 258.94v-140.4h122.9" stroke="#000" stroke-width="2" fill="none"/><path d="M738.6 259.83l-2 .22v-1.14h2z"/><path d="M875.76 118.54l-14.26 4.63v-9.27z" stroke="#000" stroke-width="2"/><path d="M1278 498.67h-218.5" stroke="#000" stroke-width="2" fill="none"/><path d="M1279 499.67h-1.03v-2h1.03z"/><path d="M1044.24 498.67l14.26-4.64v9.27z" stroke="#000" stroke-width="2"/><path d="M1278 544h-218.5" stroke="#000" stroke-width="2" fill="none"/><path d="M1279 545h-1.03v-2h1.03z"/><path d="M1044.24 544l14.26-4.64v9.28z" stroke="#000" stroke-width="2"/><path d="M940 280h240v60H940z" stroke="#000" stroke-opacity="0" stroke-width="2" fill="#fff" fill-opacity="0"/><g><use xlink:href="#N" transform="matrix(1,0,0,1,945,285) translate(91.875 28.6)"/></g><path d="M300 200h240v60H300z" stroke="#000" stroke-opacity="0" stroke-width="2" fill="#fff" fill-opacity="0"/><g><use xlink:href="#O" transform="matrix(1,0,0,1,305,205) translate(60.775000000000006 28.6)"/><use xlink:href="#f" transform="matrix(1,0,0,1,305,205) translate(111.375 28.6)"/><use xlink:href="#g" transform="matrix(1,0,0,1,305,205) translate(128.375 28.6)"/></g><path d="M328.76 380.1V430H560v10.5" stroke="#000" stroke-width="2" fill="none"/><path d="M329.76 379.22v.9h-2v-1.15z"/><path d="M560 455.76l-4.64-14.26h9.28z" stroke="#000" stroke-width="2"/><path d="M180 380h240v60H180z" stroke="#000" stroke-opacity="0" stroke-width="2" fill="#fff" fill-opacity="0"/><g><use xlink:href="#P" transform="matrix(1,0,0,1,185,385) translate(92.2 28.6)"/></g><path d="M822 320h418.5" stroke="#000" stroke-width="2" fill="none"/><path d="M822.03 321H821v-2h1.03z"/><path d="M1255.76 320l-14.26 4.64v-9.28z" stroke="#000" stroke-width="2"/><path d="M640 80h240v60H640z" stroke="#000" stroke-opacity="0" stroke-width="2" fill="#fff" fill-opacity="0"/><g><use xlink:href="#Q" transform="matrix(1,0,0,1,645,85) translate(84.575 28.6)"/></g><defs><path d="M63-220v92h138v28H63V0H30v-248h175v28H63" id="R"/><path d="M30 0v-248h187v28H63v79h144v27H63v87h162V0H30" id="S"/><g id="a"><use transform="matrix(0.05,0,0,0.05,0,0)" xlink:href="#R"/><use transform="matrix(0.05,0,0,0.05,10.950000000000001,0)" xlink:href="#S"/></g><path d="M33 0v-248h34V0H33" id="T"/><path d="M117-194c89-4 53 116 60 194h-32v-121c0-31-8-49-39-48C34-167 62-67 57 0H25l-1-190h30c1 10-1 24 2 32 11-22 29-35 61-36" id="U"/><path d="M115-194c55 1 70 41 70 98S169 2 115 4C84 4 66-9 55-30l1 105H24l-1-265h31l2 30c10-21 28-34 59-34zm-8 174c40 0 45-34 45-75s-6-73-45-74c-42 0-51 32-51 76 0 43 10 73 51 73" id="V"/><path d="M84 4C-5 8 30-112 23-190h32v120c0 31 7 50 39 49 72-2 45-101 50-169h31l1 190h-30c-1-10 1-25-2-33-11 22-28 36-60 37" id="W"/><path d="M59-47c-2 24 18 29 38 22v24C64 9 27 4 27-40v-127H5v-23h24l9-43h21v43h35v23H59v120" id="X"/><g id="b"><use transform="matrix(0.05,0,0,0.05,0,0)" xlink:href="#T"/><use transform="matrix(0.05,0,0,0.05,5,0)" xlink:href="#U"/><use transform="matrix(0.05,0,0,0.05,15,0)" xlink:href="#V"/><use transform="matrix(0.05,0,0,0.05,25,0)" xlink:href="#W"/><use transform="matrix(0.05,0,0,0.05,35,0)" xlink:href="#X"/></g><path d="M85-194c31 0 48 13 60 33l-1-100h32l1 261h-30c-2-10 0-23-3-31C134-8 116 4 85 4 32 4 16-35 15-94c0-66 23-100 70-100zm9 24c-40 0-46 34-46 75 0 40 6 74 45 74 42 0 51-32 51-76 0-42-9-74-50-73" id="Y"/><path d="M141-36C126-15 110 5 73 4 37 3 15-17 15-53c-1-64 63-63 125-63 3-35-9-54-41-54-24 1-41 7-42 31l-33-3c5-37 33-52 76-52 45 0 72 20 72 64v82c-1 20 7 32 28 27v20c-31 9-61-2-59-35zM48-53c0 20 12 33 32 33 41-3 63-29 60-74-43 2-92-5-92 41" id="Z"/><g id="c"><use transform="matrix(0.05,0,0,0.05,0,0)" xlink:href="#Y"/><use transform="matrix(0.05,0,0,0.05,10,0)" xlink:href="#Z"/><use transform="matrix(0.05,0,0,0.05,20,0)" xlink:href="#X"/><use transform="matrix(0.05,0,0,0.05,25,0)" xlink:href="#Z"/></g><path d="M16-82v-28h88v28H16" id="aa"/><use transform="matrix(0.05,0,0,0.05,0,0)" xlink:href="#aa" id="d"/><path d="M108 0H70L1-190h34L89-25l56-165h34" id="ab"/><path d="M24-231v-30h32v30H24zM24 0v-190h32V0H24" id="ac"/><path d="M100-194c63 0 86 42 84 106H49c0 40 14 67 53 68 26 1 43-12 49-29l28 8c-11 28-37 45-77 45C44 4 14-33 15-96c1-61 26-98 85-98zm52 81c6-60-76-77-97-28-3 7-6 17-6 28h103" id="ad"/><path d="M100-194c62-1 85 37 85 99 1 63-27 99-86 99S16-35 15-95c0-66 28-99 85-99zM99-20c44 1 53-31 53-75 0-43-8-75-51-75s-53 32-53 75 10 74 51 75" id="ae"/><g id="e"><use transform="matrix(0.05,0,0,0.05,0,0)" xlink:href="#ab"/><use transform="matrix(0.05,0,0,0.05,9,0)" xlink:href="#ac"/><use transform="matrix(0.05,0,0,0.05,12.949999999999998,0)" xlink:href="#Y"/><use transform="matrix(0.05,0,0,0.05,22.95,0)" xlink:href="#ad"/><use transform="matrix(0.05,0,0,0.05,32.95,0)" xlink:href="#ae"/></g><path d="M234-2c-28 10-62 0-77-18C117 19 8 12 13-65c3-43 29-61 60-76-25-40-17-114 47-108 35 3 59 15 59 50 0 44-40 53-71 69 14 26 32 50 51 72 14-21 24-43 30-72l26 8c-9 33-21 57-38 82 13 13 33 22 57 15v23zM97-151c25-10 52-18 56-48-1-18-13-29-33-29-42 0-39 50-23 77zM42-66c-3 51 71 58 98 28-20-24-41-51-56-80-23 10-40 24-42 52" id="af"/><use transform="matrix(0.05,0,0,0.05,0,0)" xlink:href="#af" id="f"/><path d="M24 0v-261h32V0H24" id="ag"/><path d="M179-190L93 31C79 59 56 82 12 73V49c39 6 53-20 64-50L1-190h34L92-34l54-156h33" id="ah"/><path d="M114-163C36-179 61-72 57 0H25l-1-190h30c1 12-1 29 2 39 6-27 23-49 58-41v29" id="ai"/><path d="M96-169c-40 0-48 33-48 73s9 75 48 75c24 0 41-14 43-38l32 2c-6 37-31 61-74 61-59 0-76-41-82-99-10-93 101-131 147-64 4 7 5 14 7 22l-32 3c-4-21-16-35-41-35" id="aj"/><path d="M135-143c-3-34-86-38-87 0 15 53 115 12 119 90S17 21 10-45l28-5c4 36 97 45 98 0-10-56-113-15-118-90-4-57 82-63 122-42 12 7 21 19 24 35" id="ak"/><g id="g"><use transform="matrix(0.05,0,0,0.05,0,0)" xlink:href="#ag"/><use transform="matrix(0.05,0,0,0.05,3.95,0)" xlink:href="#ah"/><use transform="matrix(0.05,0,0,0.05,12.949999999999998,0)" xlink:href="#ai"/><use transform="matrix(0.05,0,0,0.05,18.9,0)" xlink:href="#ac"/><use transform="matrix(0.05,0,0,0.05,22.849999999999998,0)" xlink:href="#aj"/><use transform="matrix(0.05,0,0,0.05,31.849999999999994,0)" xlink:href="#ak"/></g><path d="M30-248c87 1 191-15 191 75 0 78-77 80-158 76V0H30v-248zm33 125c57 0 124 11 124-50 0-59-68-47-124-48v98" id="al"/><g id="h"><use transform="matrix(0.05,0,0,0.05,0,0)" xlink:href="#al"/><use transform="matrix(0.05,0,0,0.05,12,0)" xlink:href="#ai"/><use transform="matrix(0.05,0,0,0.05,17.95,0)" xlink:href="#ad"/><use transform="matrix(0.05,0,0,0.05,27.950000000000003,0)" xlink:href="#aa"/><use transform="matrix(0.05,0,0,0.05,33.9,0)" xlink:href="#V"/><use transform="matrix(0.05,0,0,0.05,43.9,0)" xlink:href="#ai"/><use transform="matrix(0.05,0,0,0.05,49.85,0)" xlink:href="#ae"/><use transform="matrix(0.05,0,0,0.05,59.85,0)" xlink:href="#aj"/><use transform="matrix(0.05,0,0,0.05,68.85,0)" xlink:href="#ad"/><use transform="matrix(0.05,0,0,0.05,78.85,0)" xlink:href="#ak"/><use transform="matrix(0.05,0,0,0.05,87.85,0)" xlink:href="#ak"/><use transform="matrix(0.05,0,0,0.05,96.85,0)" xlink:href="#ae"/><use transform="matrix(0.05,0,0,0.05,106.84999999999998,0)" xlink:href="#ai"/></g><g id="i"><use transform="matrix(0.05,0,0,0.05,0,0)" xlink:href="#al"/><use transform="matrix(0.05,0,0,0.05,12,0)" xlink:href="#ad"/><use transform="matrix(0.05,0,0,0.05,22,0)" xlink:href="#ai"/><use transform="matrix(0.05,0,0,0.05,27.950000000000003,0)" xlink:href="#ak"/><use transform="matrix(0.05,0,0,0.05,36.95,0)" xlink:href="#ae"/><use transform="matrix(0.05,0,0,0.05,46.95,0)" xlink:href="#U"/></g><g id="j"><use transform="matrix(0.05,0,0,0.05,0,0)" xlink:href="#Y"/><use transform="matrix(0.05,0,0,0.05,10,0)" xlink:href="#ad"/><use transform="matrix(0.05,0,0,0.05,20,0)" xlink:href="#X"/><use transform="matrix(0.05,0,0,0.05,25,0)" xlink:href="#ad"/><use transform="matrix(0.05,0,0,0.05,35,0)" xlink:href="#aj"/><use transform="matrix(0.05,0,0,0.05,44,0)" xlink:href="#X"/><use transform="matrix(0.05,0,0,0.05,49,0)" xlink:href="#ae"/><use transform="matrix(0.05,0,0,0.05,59,0)" xlink:href="#ai"/></g><path d="M185-189c-5-48-123-54-124 2 14 75 158 14 163 119 3 78-121 87-175 55-17-10-28-26-33-46l33-7c5 56 141 63 141-1 0-78-155-14-162-118-5-82 145-84 179-34 5 7 8 16 11 25" id="am"/><g id="k"><use transform="matrix(0.05,0,0,0.05,0,0)" xlink:href="#am"/><use transform="matrix(0.05,0,0,0.05,12,0)" xlink:href="#V"/><use transform="matrix(0.05,0,0,0.05,22,0)" xlink:href="#ag"/><use transform="matrix(0.05,0,0,0.05,25.950000000000003,0)" xlink:href="#ac"/><use transform="matrix(0.05,0,0,0.05,29.899999999999995,0)" xlink:href="#X"/><use transform="matrix(0.05,0,0,0.05,34.9,0)" xlink:href="#X"/><use transform="matrix(0.05,0,0,0.05,39.9,0)" xlink:href="#ad"/><use transform="matrix(0.05,0,0,0.05,49.9,0)" xlink:href="#ai"/></g><path d="M101-234c-31-9-42 10-38 44h38v23H63V0H32v-167H5v-23h27c-7-52 17-82 69-68v24" id="an"/><path d="M210-169c-67 3-38 105-44 169h-31v-121c0-29-5-50-35-48C34-165 62-65 56 0H25l-1-190h30c1 10-1 24 2 32 10-44 99-50 107 0 11-21 27-35 58-36 85-2 47 119 55 194h-31v-121c0-29-5-49-35-48" id="ao"/><g id="l"><use transform="matrix(0.05,0,0,0.05,0,0)" xlink:href="#an"/><use transform="matrix(0.05,0,0,0.05,5,0)" xlink:href="#ai"/><use transform="matrix(0.05,0,0,0.05,10.95,0)" xlink:href="#Z"/><use transform="matrix(0.05,0,0,0.05,20.95,0)" xlink:href="#ao"/><use transform="matrix(0.05,0,0,0.05,35.9,0)" xlink:href="#ad"/><use transform="matrix(0.05,0,0,0.05,45.9,0)" xlink:href="#ak"/></g><g id="m"><use transform="matrix(0.05,0,0,0.05,0,0)" xlink:href="#Z"/><use transform="matrix(0.05,0,0,0.05,10,0)" xlink:href="#U"/><use transform="matrix(0.05,0,0,0.05,20,0)" xlink:href="#Y"/></g><g id="n"><use transform="matrix(0.05,0,0,0.05,0,0)" xlink:href="#X"/><use transform="matrix(0.05,0,0,0.05,5,0)" xlink:href="#ac"/><use transform="matrix(0.05,0,0,0.05,8.95,0)" xlink:href="#ao"/><use transform="matrix(0.05,0,0,0.05,23.9,0)" xlink:href="#ad"/><use transform="matrix(0.05,0,0,0.05,33.9,0)" xlink:href="#aa"/><use transform="matrix(0.05,0,0,0.05,39.85,0)" xlink:href="#ak"/><use transform="matrix(0.05,0,0,0.05,48.85,0)" xlink:href="#X"/><use transform="matrix(0.05,0,0,0.05,53.85,0)" xlink:href="#Z"/><use transform="matrix(0.05,0,0,0.05,63.85,0)" xlink:href="#ao"/><use transform="matrix(0.05,0,0,0.05,78.8,0)" xlink:href="#V"/></g><path d="M106-169C34-169 62-67 57 0H25v-261h32l-1 103c12-21 28-36 61-36 89 0 53 116 60 194h-32v-121c2-32-8-49-39-48" id="ap"/><g id="o"><use transform="matrix(0.05,0,0,0.05,0,0)" xlink:href="#ap"/><use transform="matrix(0.05,0,0,0.05,10,0)" xlink:href="#Z"/><use transform="matrix(0.05,0,0,0.05,20,0)" xlink:href="#ak"/><use transform="matrix(0.05,0,0,0.05,29,0)" xlink:href="#ap"/><use transform="matrix(0.05,0,0,0.05,39,0)" xlink:href="#ad"/><use transform="matrix(0.05,0,0,0.05,49,0)" xlink:href="#Y"/></g><path d="M115-194c53 0 69 39 70 98 0 66-23 100-70 100C84 3 66-7 56-30L54 0H23l1-261h32v101c10-23 28-34 59-34zm-8 174c40 0 45-34 45-75 0-40-5-75-45-74-42 0-51 32-51 76 0 43 10 73 51 73" id="aq"/><g id="p"><use transform="matrix(0.05,0,0,0.05,0,0)" xlink:href="#an"/><use transform="matrix(0.05,0,0,0.05,5,0)" xlink:href="#ae"/><use transform="matrix(0.05,0,0,0.05,15,0)" xlink:href="#ai"/><use transform="matrix(0.05,0,0,0.05,20.95,0)" xlink:href="#aq"/><use transform="matrix(0.05,0,0,0.05,30.950000000000003,0)" xlink:href="#ac"/><use transform="matrix(0.05,0,0,0.05,34.9,0)" xlink:href="#Y"/><use transform="matrix(0.05,0,0,0.05,44.9,0)" xlink:href="#Y"/><use transform="matrix(0.05,0,0,0.05,54.900000000000006,0)" xlink:href="#ad"/><use transform="matrix(0.05,0,0,0.05,64.9,0)" xlink:href="#U"/></g><path d="M9 0v-24l116-142H16v-24h144v24L44-24h123V0H9" id="ar"/><g id="q"><use transform="matrix(0.05,0,0,0.05,0,0)" xlink:href="#ar"/><use transform="matrix(0.05,0,0,0.05,9,0)" xlink:href="#ae"/><use transform="matrix(0.05,0,0,0.05,19,0)" xlink:href="#U"/><use transform="matrix(0.05,0,0,0.05,29,0)" xlink:href="#ad"/><use transform="matrix(0.05,0,0,0.05,39,0)" xlink:href="#ak"/></g><path d="M140-251c81 0 123 46 123 126C263-46 219 4 140 4 59 4 17-45 17-125s42-126 123-126zm0 227c63 0 89-41 89-101s-29-99-89-99c-61 0-89 39-89 99S79-25 140-24" id="as"/><g id="r"><use transform="matrix(0.05,0,0,0.05,0,0)" xlink:href="#as"/><use transform="matrix(0.05,0,0,0.05,14,0)" xlink:href="#V"/><use transform="matrix(0.05,0,0,0.05,24,0)" xlink:href="#X"/><use transform="matrix(0.05,0,0,0.05,29,0)" xlink:href="#ac"/><use transform="matrix(0.05,0,0,0.05,32.95,0)" xlink:href="#ao"/><use transform="matrix(0.05,0,0,0.05,47.900000000000006,0)" xlink:href="#ac"/><use transform="matrix(0.05,0,0,0.05,51.85,0)" xlink:href="#ar"/><use transform="matrix(0.05,0,0,0.05,60.85,0)" xlink:href="#ad"/><use transform="matrix(0.05,0,0,0.05,70.85000000000001,0)" xlink:href="#ai"/></g><path d="M177-190C167-65 218 103 67 71c-23-6-38-20-44-43l32-5c15 47 100 32 89-28v-30C133-14 115 1 83 1 29 1 15-40 15-95c0-56 16-97 71-98 29-1 48 16 59 35 1-10 0-23 2-32h30zM94-22c36 0 50-32 50-73 0-42-14-75-50-75-39 0-46 34-46 75s6 73 46 73" id="at"/><g id="s"><use transform="matrix(0.05,0,0,0.05,0,0)" xlink:href="#ai"/><use transform="matrix(0.05,0,0,0.05,5.95,0)" xlink:href="#Z"/><use transform="matrix(0.05,0,0,0.05,15.949999999999998,0)" xlink:href="#U"/><use transform="matrix(0.05,0,0,0.05,25.950000000000003,0)" xlink:href="#at"/><use transform="matrix(0.05,0,0,0.05,35.95,0)" xlink:href="#ad"/></g><g id="t"><use transform="matrix(0.05,0,0,0.05,0,0)" xlink:href="#ag"/><use transform="matrix(0.05,0,0,0.05,3.95,0)" xlink:href="#ah"/><use transform="matrix(0.05,0,0,0.05,12.949999999999998,0)" xlink:href="#ai"/><use transform="matrix(0.05,0,0,0.05,18.9,0)" xlink:href="#ac"/><use transform="matrix(0.05,0,0,0.05,22.849999999999998,0)" xlink:href="#aj"/><use transform="matrix(0.05,0,0,0.05,31.849999999999994,0)" xlink:href="#ak"/></g><path d="M141 0L90-78 38 0H4l68-98-65-92h35l48 74 47-74h35l-64 92 68 98h-35" id="au"/><g id="u"><use transform="matrix(0.05,0,0,0.05,0,0)" xlink:href="#aq"/><use transform="matrix(0.05,0,0,0.05,10,0)" xlink:href="#ae"/><use transform="matrix(0.05,0,0,0.05,20,0)" xlink:href="#au"/><use transform="matrix(0.05,0,0,0.05,29,0)" xlink:href="#ad"/><use transform="matrix(0.05,0,0,0.05,39,0)" xlink:href="#ak"/></g><g id="v"><use transform="matrix(0.05,0,0,0.05,0,0)" xlink:href="#as"/><use transform="matrix(0.05,0,0,0.05,14,0)" xlink:href="#ab"/><use transform="matrix(0.05,0,0,0.05,23,0)" xlink:href="#ad"/><use transform="matrix(0.05,0,0,0.05,33,0)" xlink:href="#ai"/><use transform="matrix(0.05,0,0,0.05,38.95,0)" xlink:href="#ag"/><use transform="matrix(0.05,0,0,0.05,42.900000000000006,0)" xlink:href="#Z"/><use transform="matrix(0.05,0,0,0.05,52.900000000000006,0)" xlink:href="#ah"/><use transform="matrix(0.05,0,0,0.05,61.900000000000006,0)" xlink:href="#ad"/><use transform="matrix(0.05,0,0,0.05,71.9,0)" xlink:href="#ai"/></g><g id="w"><use transform="matrix(0.05,0,0,0.05,0,0)" xlink:href="#as"/><use transform="matrix(0.05,0,0,0.05,14,0)" xlink:href="#W"/><use transform="matrix(0.05,0,0,0.05,24,0)" xlink:href="#X"/><use transform="matrix(0.05,0,0,0.05,29,0)" xlink:href="#V"/><use transform="matrix(0.05,0,0,0.05,39,0)" xlink:href="#W"/><use transform="matrix(0.05,0,0,0.05,49,0)" xlink:href="#X"/></g><g id="x"><use transform="matrix(0.05,0,0,0.05,0,0)" xlink:href="#ab"/><use transform="matrix(0.05,0,0,0.05,9,0)" xlink:href="#ac"/><use transform="matrix(0.05,0,0,0.05,12.949999999999998,0)" xlink:href="#Y"/><use transform="matrix(0.05,0,0,0.05,22.95,0)" xlink:href="#ad"/><use transform="matrix(0.05,0,0,0.05,32.95,0)" xlink:href="#ae"/></g><path d="M232-93c-1 65-40 97-104 97C67 4 28-28 28-90v-158h33c8 89-33 224 67 224 102 0 64-133 71-224h33v155" id="av"/><g id="y"><use transform="matrix(0.05,0,0,0.05,0,0)" xlink:href="#av"/><use transform="matrix(0.05,0,0,0.05,12.950000000000001,0)" xlink:href="#V"/><use transform="matrix(0.05,0,0,0.05,22.950000000000003,0)" xlink:href="#ag"/><use transform="matrix(0.05,0,0,0.05,26.900000000000002,0)" xlink:href="#ae"/><use transform="matrix(0.05,0,0,0.05,36.900000000000006,0)" xlink:href="#Z"/><use transform="matrix(0.05,0,0,0.05,46.900000000000006,0)" xlink:href="#Y"/></g><g id="z"><use transform="matrix(0.05,0,0,0.05,0,0)" xlink:href="#am"/><use transform="matrix(0.05,0,0,0.05,12,0)" xlink:href="#W"/><use transform="matrix(0.05,0,0,0.05,22,0)" xlink:href="#aq"/><use transform="matrix(0.05,0,0,0.05,32,0)" xlink:href="#ao"/><use transform="matrix(0.05,0,0,0.05,46.95,0)" xlink:href="#ac"/><use transform="matrix(0.05,0,0,0.05,50.900000000000006,0)" xlink:href="#X"/></g><g id="A"><use transform="matrix(0.05,0,0,0.05,0,0)" xlink:href="#aq"/><use transform="matrix(0.05,0,0,0.05,10,0)" xlink:href="#W"/><use transform="matrix(0.05,0,0,0.05,20,0)" xlink:href="#X"/><use transform="matrix(0.05,0,0,0.05,25,0)" xlink:href="#X"/><use transform="matrix(0.05,0,0,0.05,30,0)" xlink:href="#ae"/><use transform="matrix(0.05,0,0,0.05,40,0)" xlink:href="#U"/></g><path d="M143 0L79-87 56-68V0H24v-261h32v163l83-92h37l-77 82L181 0h-38" id="aw"/><g id="B"><use transform="matrix(0.05,0,0,0.05,0,0)" xlink:href="#aj"/><use transform="matrix(0.05,0,0,0.05,9,0)" xlink:href="#ag"/><use transform="matrix(0.05,0,0,0.05,12.949999999999998,0)" xlink:href="#ac"/><use transform="matrix(0.05,0,0,0.05,16.9,0)" xlink:href="#aj"/><use transform="matrix(0.05,0,0,0.05,25.899999999999995,0)" xlink:href="#aw"/><use transform="matrix(0.05,0,0,0.05,34.9,0)" xlink:href="#ad"/><use transform="matrix(0.05,0,0,0.05,44.9,0)" xlink:href="#Y"/></g><g id="C"><use transform="matrix(0.03765432098765432,0,0,0.03765432098765432,0,0)" xlink:href="#X"/><use transform="matrix(0.03765432098765432,0,0,0.03765432098765432,3.765432098765432,0)" xlink:href="#ac"/><use transform="matrix(0.03765432098765432,0,0,0.03765432098765432,6.740123456790123,0)" xlink:href="#ao"/><use transform="matrix(0.03765432098765432,0,0,0.03765432098765432,17.998765432098764,0)" xlink:href="#ad"/><use transform="matrix(0.03765432098765432,0,0,0.03765432098765432,25.52962962962963,0)" xlink:href="#aa"/><use transform="matrix(0.03765432098765432,0,0,0.03765432098765432,30.01049382716049,0)" xlink:href="#ak"/><use transform="matrix(0.03765432098765432,0,0,0.03765432098765432,36.78827160493827,0)" xlink:href="#X"/><use transform="matrix(0.03765432098765432,0,0,0.03765432098765432,40.5537037037037,0)" xlink:href="#Z"/><use transform="matrix(0.03765432098765432,0,0,0.03765432098765432,48.084567901234564,0)" xlink:href="#ao"/><use transform="matrix(0.03765432098765432,0,0,0.03765432098765432,59.343209876543206,0)" xlink:href="#V"/></g><g id="D"><use transform="matrix(0.03765432098765432,0,0,0.03765432098765432,0,0)" xlink:href="#ai"/><use transform="matrix(0.03765432098765432,0,0,0.03765432098765432,4.480864197530864,0)" xlink:href="#Z"/><use transform="matrix(0.03765432098765432,0,0,0.03765432098765432,12.011728395061727,0)" xlink:href="#U"/><use transform="matrix(0.03765432098765432,0,0,0.03765432098765432,19.54259259259259,0)" xlink:href="#at"/><use transform="matrix(0.03765432098765432,0,0,0.03765432098765432,27.073456790123455,0)" xlink:href="#ad"/></g><g id="E"><use transform="matrix(0.03765432098765432,0,0,0.03765432098765432,0,0)" xlink:href="#ap"/><use transform="matrix(0.03765432098765432,0,0,0.03765432098765432,7.530864197530864,0)" xlink:href="#Z"/><use transform="matrix(0.03765432098765432,0,0,0.03765432098765432,15.061728395061728,0)" xlink:href="#ak"/><use transform="matrix(0.03765432098765432,0,0,0.03765432098765432,21.83950617283951,0)" xlink:href="#ap"/><use transform="matrix(0.03765432098765432,0,0,0.03765432098765432,29.37037037037037,0)" xlink:href="#ad"/><use transform="matrix(0.03765432098765432,0,0,0.03765432098765432,36.901234567901234,0)" xlink:href="#Y"/></g><path d="M30 0v-248h33v221h125V0H30" id="ax"/><g id="F"><use transform="matrix(0.03765432098765432,0,0,0.03765432098765432,0,0)" xlink:href="#ax"/><use transform="matrix(0.03765432098765432,0,0,0.03765432098765432,7.041358024691358,0)" xlink:href="#ah"/><use transform="matrix(0.03765432098765432,0,0,0.03765432098765432,13.819135802469134,0)" xlink:href="#ai"/><use transform="matrix(0.03765432098765432,0,0,0.03765432098765432,18.299999999999997,0)" xlink:href="#ac"/><use transform="matrix(0.03765432098765432,0,0,0.03765432098765432,21.27469135802469,0)" xlink:href="#aj"/><use transform="matrix(0.03765432098765432,0,0,0.03765432098765432,28.05246913580247,0)" xlink:href="#ak"/></g><use transform="matrix(0.03765432098765432,0,0,0.03765432098765432,0,0)" xlink:href="#af" id="G"/><g id="H"><use transform="matrix(0.03765432098765432,0,0,0.03765432098765432,0,0)" xlink:href="#X"/><use transform="matrix(0.03765432098765432,0,0,0.03765432098765432,3.765432098765432,0)" xlink:href="#ac"/><use transform="matrix(0.03765432098765432,0,0,0.03765432098765432,6.740123456790123,0)" xlink:href="#ao"/><use transform="matrix(0.03765432098765432,0,0,0.03765432098765432,17.998765432098764,0)" xlink:href="#ad"/><use transform="matrix(0.03765432098765432,0,0,0.03765432098765432,25.52962962962963,0)" xlink:href="#aa"/><use transform="matrix(0.03765432098765432,0,0,0.03765432098765432,30.01049382716049,0)" xlink:href="#av"/><use transform="matrix(0.03765432098765432,0,0,0.03765432098765432,39.76296296296296,0)" xlink:href="#U"/><use transform="matrix(0.03765432098765432,0,0,0.03765432098765432,47.29382716049382,0)" xlink:href="#ac"/><use transform="matrix(0.03765432098765432,0,0,0.03765432098765432,50.26851851851851,0)" xlink:href="#ae"/><use transform="matrix(0.03765432098765432,0,0,0.03765432098765432,57.79938271604938,0)" xlink:href="#U"/><use transform="matrix(0.03765432098765432,0,0,0.03765432098765432,65.33024691358024,0)" xlink:href="#aa"/><use transform="matrix(0.03765432098765432,0,0,0.03765432098765432,69.8111111111111,0)" xlink:href="#ad"/><use transform="matrix(0.03765432098765432,0,0,0.03765432098765432,77.34197530864196,0)" xlink:href="#Y"/></g><g id="I"><use transform="matrix(0.03765432098765432,0,0,0.03765432098765432,0,0)" xlink:href="#R"/><use transform="matrix(0.03765432098765432,0,0,0.03765432098765432,8.246296296296295,0)" xlink:href="#ai"/><use transform="matrix(0.03765432098765432,0,0,0.03765432098765432,12.72716049382716,0)" xlink:href="#ae"/><use transform="matrix(0.03765432098765432,0,0,0.03765432098765432,20.258024691358024,0)" xlink:href="#aq"/><use transform="matrix(0.03765432098765432,0,0,0.03765432098765432,27.788888888888888,0)" xlink:href="#ac"/><use transform="matrix(0.03765432098765432,0,0,0.03765432098765432,30.76358024691358,0)" xlink:href="#Y"/><use transform="matrix(0.03765432098765432,0,0,0.03765432098765432,38.294444444444444,0)" xlink:href="#Y"/><use transform="matrix(0.03765432098765432,0,0,0.03765432098765432,45.82530864197531,0)" xlink:href="#ad"/><use transform="matrix(0.03765432098765432,0,0,0.03765432098765432,53.356172839506165,0)" xlink:href="#U"/></g><g id="J"><use transform="matrix(0.03765432098765432,0,0,0.03765432098765432,0,0)" xlink:href="#ar"/><use transform="matrix(0.03765432098765432,0,0,0.03765432098765432,6.777777777777777,0)" xlink:href="#ae"/><use transform="matrix(0.03765432098765432,0,0,0.03765432098765432,14.30864197530864,0)" xlink:href="#U"/><use transform="matrix(0.03765432098765432,0,0,0.03765432098765432,21.83950617283951,0)" xlink:href="#ad"/><use transform="matrix(0.03765432098765432,0,0,0.03765432098765432,29.37037037037037,0)" xlink:href="#ak"/></g><g id="K"><use transform="matrix(0.05,0,0,0.05,0,0)" xlink:href="#an"/><use transform="matrix(0.05,0,0,0.05,5,0)" xlink:href="#ad"/><use transform="matrix(0.05,0,0,0.05,15,0)" xlink:href="#Z"/><use transform="matrix(0.05,0,0,0.05,25,0)" xlink:href="#X"/><use transform="matrix(0.05,0,0,0.05,30,0)" xlink:href="#ap"/><use transform="matrix(0.05,0,0,0.05,40,0)" xlink:href="#ad"/><use transform="matrix(0.05,0,0,0.05,50,0)" xlink:href="#ai"/></g><g id="L"><use transform="matrix(0.05,0,0,0.05,0,0)" xlink:href="#ab"/><use transform="matrix(0.05,0,0,0.05,9,0)" xlink:href="#ac"/><use transform="matrix(0.05,0,0,0.05,12.949999999999998,0)" xlink:href="#Y"/><use transform="matrix(0.05,0,0,0.05,22.95,0)" xlink:href="#ad"/><use transform="matrix(0.05,0,0,0.05,32.95,0)" xlink:href="#ae"/></g><g id="M"><use transform="matrix(0.05,0,0,0.05,0,0)" xlink:href="#an"/><use transform="matrix(0.05,0,0,0.05,5,0)" xlink:href="#ac"/><use transform="matrix(0.05,0,0,0.05,8.95,0)" xlink:href="#ag"/><use transform="matrix(0.05,0,0,0.05,12.899999999999999,0)" xlink:href="#ad"/></g><g id="N"><use transform="matrix(0.05,0,0,0.05,0,0)" xlink:href="#ax"/><use transform="matrix(0.05,0,0,0.05,9.35,0)" xlink:href="#ah"/><use transform="matrix(0.05,0,0,0.05,18.35,0)" xlink:href="#ai"/><use transform="matrix(0.05,0,0,0.05,24.3,0)" xlink:href="#ac"/><use transform="matrix(0.05,0,0,0.05,28.25,0)" xlink:href="#aj"/><use transform="matrix(0.05,0,0,0.05,37.25,0)" xlink:href="#ak"/></g><path d="M137 0h-34L2-248h35l83 218 83-218h36" id="ay"/><g id="O"><use transform="matrix(0.05,0,0,0.05,0,0)" xlink:href="#ay"/><use transform="matrix(0.05,0,0,0.05,11.65,0)" xlink:href="#ac"/><use transform="matrix(0.05,0,0,0.05,15.600000000000001,0)" xlink:href="#Y"/><use transform="matrix(0.05,0,0,0.05,25.6,0)" xlink:href="#ad"/><use transform="matrix(0.05,0,0,0.05,35.6,0)" xlink:href="#ae"/></g><g id="P"><use transform="matrix(0.05,0,0,0.05,0,0)" xlink:href="#ay"/><use transform="matrix(0.05,0,0,0.05,11.65,0)" xlink:href="#ac"/><use transform="matrix(0.05,0,0,0.05,15.600000000000001,0)" xlink:href="#Y"/><use transform="matrix(0.05,0,0,0.05,25.6,0)" xlink:href="#ad"/><use transform="matrix(0.05,0,0,0.05,35.6,0)" xlink:href="#ae"/></g><g id="Q"><use transform="matrix(0.05,0,0,0.05,0,0)" xlink:href="#R"/><use transform="matrix(0.05,0,0,0.05,10.950000000000001,0)" xlink:href="#ai"/><use transform="matrix(0.05,0,0,0.05,16.900000000000002,0)" xlink:href="#Z"/><use transform="matrix(0.05,0,0,0.05,26.900000000000002,0)" xlink:href="#ao"/><use transform="matrix(0.05,0,0,0.05,41.85,0)" xlink:href="#ad"/><use transform="matrix(0.05,0,0,0.05,51.85,0)" xlink:href="#ak"/></g></defs></g></svg>
